<?xml version="1.0" encoding="utf-8"?>
<!-- Generator: Adobe Illustrator 16.0.0, SVG Export Plug-In . SVG Version: 6.00 Build 0)  -->
<!DOCTYPE svg PUBLIC "-//W3C//DTD SVG 1.1//EN" "http://www.w3.org/Graphics/SVG/1.1/DTD/svg11.dtd">
<svg version="1.1" id="Layer_1" xmlns="http://www.w3.org/2000/svg" xmlns:xlink="http://www.w3.org/1999/xlink" x="0px" y="0px"
	 width="53.8589px" height="53.8579px" viewBox="0 -0.4497 53.8589 53.8579" enable-background="new 0 -0.4497 53.8589 53.8579"
	 xml:space="preserve">
<g display="none">
	<rect x="12.2905" y="22.3848" display="inline" fill="#4981FF" width="4.1055" height="4.1064"/>
	<polygon display="inline" fill="#4981FF" points="12.2866,9.6289 16.3921,9.6289 16.3921,5.5215 16.3921,1.417 12.2837,1.417 
		12.2837,5.5244 12.2866,5.5244 	"/>
	<polygon display="inline" fill="#4981FF" points="37.4604,9.6289 41.5679,9.6289 41.5679,5.5215 41.564,5.5215 41.564,1.417 
		37.4585,1.417 37.4585,5.5244 37.4604,5.5244 	"/>
	<rect x="12.2866" y="30.8076" display="inline" fill="#4981FF" width="4.1094" height="4.1074"/>
	<rect x="12.2847" y="39.2334" display="inline" fill="#4981FF" width="4.1074" height="4.1074"/>
	<rect x="20.6821" y="22.3848" display="inline" fill="#4981FF" width="4.1045" height="4.1064"/>
	<rect x="20.6772" y="30.8076" display="inline" fill="#4981FF" width="4.1094" height="4.1074"/>
	<rect x="20.6753" y="39.2334" display="inline" fill="#4981FF" width="4.1074" height="4.1074"/>
	<rect x="29.0718" y="22.3848" display="inline" fill="#4981FF" width="4.1035" height="4.1064"/>
	<rect x="29.0659" y="30.8076" display="inline" fill="#4981FF" width="4.1094" height="4.1074"/>
	<rect x="29.064" y="39.2334" display="inline" fill="#4981FF" width="4.1074" height="4.1074"/>
	<rect x="37.4624" y="22.3848" display="inline" fill="#4981FF" width="4.1055" height="4.1064"/>
	<rect x="37.4585" y="30.8076" display="inline" fill="#4981FF" width="4.1094" height="4.1074"/>
	<rect x="37.4546" y="39.2334" display="inline" fill="#4981FF" width="4.1074" height="4.1074"/>
	<path display="inline" fill="#4981FF" d="M43.7964,7.5762v4.2773h-8.5801V7.7412H18.6421v4.1123H10.062V7.5762H1.8032v10.6465
		h2.2373V51.542h45.7949V18.2227h2.2188V7.5762H43.7964z M45.73,47.4854H8.1499V18.2227h1.9121h33.7344H45.73V47.4854z"/>
</g>
<g>
	<circle fill="#4981FF" cx="26.9292" cy="26.4792" r="25.2776"/>
	<polygon fill="#FFFFFF" points="37.8511,24.627 28.7808,24.627 28.7808,15.5586 25.0762,15.5586 25.0762,24.627 16.0078,24.627 
		16.0078,28.3301 25.0762,28.3301 25.0762,37.3994 28.7808,37.3994 28.7808,28.3301 37.8511,28.3301 	"/>
</g>
<g display="none">
	<circle display="inline" fill="#4981FF" cx="26.9292" cy="26.4783" r="25.2493"/>
	<g display="inline">
		<path fill="#FFFFFF" d="M36.8628,26.4814c0-2.748,2.2266-4.9824,4.9746-4.9824c2.75,0,4.9766,2.2344,4.9766,4.9824
			c0,2.749-2.2266,4.9785-4.9766,4.9785C39.0894,31.46,36.8628,29.2305,36.8628,26.4814z"/>
		<path fill="#FFFFFF" d="M22.0811,26.4814c0-2.748,2.2285-4.9824,4.9775-4.9824c2.7515,0,4.9761,2.2344,4.9761,4.9824
			c0,2.749-2.2246,4.9785-4.9761,4.9785C24.3096,31.46,22.0811,29.2305,22.0811,26.4814z"/>
		<path fill="#FFFFFF" d="M7.0439,26.4814c0-2.748,2.2266-4.9824,4.9775-4.9824c2.749,0,4.9785,2.2344,4.9785,4.9824
			c0,2.749-2.2295,4.9785-4.9785,4.9785C9.2705,31.46,7.0439,29.2305,7.0439,26.4814z"/>
	</g>
</g>
</svg>
